<?xml version="1.0" encoding="UTF-8"?>
<svg xmlns="http://www.w3.org/2000/svg" xmlns:xlink="http://www.w3.org/1999/xlink" width="480px" height="480px" viewBox="0 0 480 480" version="1.1">
<g id="surface84343">
<path style=" stroke:none;fill-rule:nonzero;fill:rgb(48.627451%,70.196078%,25.882353%);fill-opacity:1;" d="M 235.941406 430 C 213.871094 430 195.960938 412.089844 195.960938 390 C 195.960938 367.898438 213.871094 350 235.941406 350 C 258.050781 350 275.960938 367.898438 275.960938 390 C 275.960938 412.089844 258.050781 430 235.941406 430 Z M 235.941406 430 "/>
<path style=" stroke:none;fill-rule:nonzero;fill:rgb(61.176471%,80%,39.607843%);fill-opacity:1;" d="M 390 204.039062 C 373.429688 204.039062 360 217.472656 360 234.039062 C 360 250.609375 373.429688 264.039062 390 264.039062 C 406.570312 264.039062 420 250.609375 420 234.039062 C 420 217.472656 406.570312 204.039062 390 204.039062 Z M 390 204.039062 "/>
<path style=" stroke:none;fill-rule:nonzero;fill:rgb(68.235294%,83.529412%,50.588235%);fill-opacity:1;" d="M 345.179688 154.980469 C 328.589844 154.980469 315.160156 141.539062 315.160156 124.980469 C 315.160156 108.421875 328.589844 94.980469 345.179688 94.980469 C 361.71875 94.980469 375.160156 108.421875 375.160156 124.980469 C 375.160156 141.539062 361.71875 154.980469 345.179688 154.980469 Z M 345.179688 154.980469 "/>
<path style=" stroke:none;fill-rule:nonzero;fill:rgb(81.176471%,84.705882%,86.27451%);fill-opacity:1;" d="M 235.941406 110 C 219.398438 110 205.960938 96.558594 205.960938 79.980469 C 205.960938 63.429688 219.390625 50 235.941406 50 C 252.539062 50 265.960938 63.429688 265.960938 79.980469 C 265.960938 96.558594 252.539062 110 235.941406 110 Z M 80 248.929688 C 68.980469 248.929688 60 239.96875 60 228.929688 C 60 217.878906 68.980469 208.929688 80 208.929688 C 91.050781 208.929688 100 217.878906 100 228.929688 C 100 239.96875 91.050781 248.929688 80 248.929688 Z M 126.78125 358.089844 C 118.5 358.089844 111.761719 351.390625 111.761719 343.089844 C 111.761719 334.851562 118.5 328.089844 126.78125 328.089844 C 135.058594 328.089844 141.761719 334.851562 141.761719 343.089844 C 141.761719 351.390625 135.058594 358.089844 126.78125 358.089844 Z M 126.769531 99.980469 C 112.960938 99.980469 101.769531 111.171875 101.769531 124.980469 C 101.769531 138.789062 112.960938 149.980469 126.769531 149.980469 C 140.578125 149.980469 151.769531 138.789062 151.769531 124.980469 C 151.769531 111.171875 140.578125 99.980469 126.769531 99.980469 Z M 126.769531 99.980469 "/>
<path style=" stroke:none;fill-rule:nonzero;fill:rgb(54.509804%,76.470588%,29.019608%);fill-opacity:1;" d="M 345.179688 378.089844 C 325.828125 378.089844 310.160156 362.441406 310.160156 343.089844 C 310.160156 323.769531 325.828125 308.089844 345.179688 308.089844 C 364.480469 308.089844 380.160156 323.769531 380.160156 343.089844 C 380.160156 362.429688 364.46875 378.089844 345.179688 378.089844 Z M 345.179688 378.089844 "/>
</g>
</svg>
